<svg width="14" height="14" viewBox="0 0 14 14" fill="none" xmlns="http://www.w3.org/2000/svg">
<path d="M6.5479 0.457121C6.72831 0.0751911 7.27169 0.0751907 7.4521 0.457121L9.17302 4.10039C9.2459 4.25469 9.39245 4.36116 9.56172 4.3828L13.5585 4.89366C13.9775 4.94721 14.1454 5.464 13.8379 5.7536L10.9047 8.51612C10.7805 8.63312 10.7245 8.8054 10.7563 8.97308L11.5055 12.9321C11.584 13.3471 11.1444 13.6665 10.7739 13.4635L7.24023 11.5276C7.09057 11.4456 6.90943 11.4456 6.75977 11.5276L3.22606 13.4635C2.85561 13.6665 2.416 13.3471 2.49454 12.9321L3.24375 8.97308C3.27548 8.8054 3.2195 8.63312 3.09528 8.51612L0.162117 5.7536C-0.145371 5.464 0.0225447 4.94721 0.441531 4.89366L4.43828 4.3828C4.60755 4.36116 4.7541 4.25469 4.82698 4.10039L6.5479 0.457121Z" fill="#222222"/>
</svg>
