<svg width="45" height="45" viewBox="0 0 45 45" fill="none" xmlns="http://www.w3.org/2000/svg">
<path d="M34.993 17.884C34.98 17.769 34.946 17.656 34.894 17.552L32.27 12.304L32.174 12.128C31.803 11.494 31.21 11.016 30.507 10.789L23.143 8.416L23.022 8.367C22.362 8.128 21.638 8.128 20.978 8.367L20.856 8.416L13.493 10.789L13.304 10.858C12.622 11.13 12.06 11.643 11.73 12.304L9.106 17.552L9.06 17.658C9.02 17.767 9 17.884 9 18V35L9.005 35.149C9.082 36.184 9.946 37 11 37H33L33.149 36.994C34.184 36.917 35 36.054 35 35V18L34.993 17.884ZM33 35H11V25H33V35ZM33 23H11V18.235L13.519 13.199L13.586 13.082C13.711 12.899 13.893 12.763 14.106 12.694L21.495 10.313L21.707 10.233C21.936 10.162 22.185 10.175 22.406 10.274L22.505 10.313L29.894 12.694L30.018 12.742C30.217 12.838 30.381 12.998 30.481 13.199L33 18.237V23Z" fill="#3C3C3C"/>
<path d="M25 13.999H19L18.883 14.006C18.386 14.063 18 14.486 18 14.999V19.999L18.007 20.116C18.065 20.613 18.487 20.999 19 20.999H25L25.117 20.992C25.614 20.934 26 20.512 26 19.999V14.999L25.993 14.882C25.935 14.385 25.513 13.999 25 13.999ZM24 18.999H20V15.999H24V18.999Z" fill="#3C3C3C"/>
<path d="M16 24.125V35" stroke="#3C3C3C" stroke-width="2"/>
<path d="M28.004 35.996H27.269H15.998V24.016H28.004V34.63V35.996Z" stroke="#3C3C3C" stroke-width="1.998" stroke-linecap="round" stroke-linejoin="round"/>
<path d="M15.998 24.017L28.004 35.997" stroke="#3C3C3C" stroke-width="1.998" stroke-miterlimit="10"/>
<path d="M28.004 24.017L15.998 35.997" stroke="#3C3C3C" stroke-width="1.998" stroke-miterlimit="10"/>
</svg>
