<svg width="45" height="45" viewBox="0 0 45 45" fill="none" xmlns="http://www.w3.org/2000/svg">
<path d="M17.375 19.675V25.762" stroke="#3C3C3C" stroke-width="2"/>
<path d="M15.377 29.756H19.375V25.762H15.377V29.756Z" stroke="#3C3C3C" stroke-width="2" stroke-linecap="round" stroke-linejoin="round"/>
<path d="M28 21.499V21.999H28.5L32.5 22C32.752 22 32.961 22.186 32.995 22.429L33 22.514V31.5C33 31.752 32.813 31.961 32.571 31.995L32.485 32H28.5H28V32.5C28 33.827 27.306 35.068 26.102 35.922C25.201 36.561 24.07 36.942 22.862 36.993L22.571 37H15.5C13.082 37 11.109 35.092 11.004 32.7L11 32.494V19.5C11 19.248 11.187 19.039 11.429 19.005L11.514 19H27.5C27.752 19 27.961 19.186 27.995 19.429L28 19.514V21.499ZM17 20.499V19.999H16.5L12.5 20H12V20.5V32.5C12 34.295 13.351 35.774 15.092 35.976L15.099 35.977L15.107 35.978L15.28 35.993L15.295 35.994H15.309L15.485 35.999L15.493 36H15.5H22.577C23.672 36 24.712 35.682 25.523 35.107C26.373 34.504 26.918 33.656 26.991 32.716L26.992 32.706L26.993 32.696L26.999 32.519L27 32.509V32.5V20.5V20H26.5L18.5 19.999H18V20.499M32 23.5V23H31.5H28.5H28V23.5V30.5V31H28.5H31.5H32V30.5V23.5Z" fill="#3C3C3C"/>
<path d="M17 20.499V19.999H16.5L12.5 20H12V20.5V32.5C12 34.295 13.351 35.774 15.092 35.976L15.099 35.977L15.107 35.978L15.28 35.993L15.295 35.994H15.309L15.485 35.999L15.493 36H15.5H22.577C23.672 36 24.712 35.682 25.523 35.107C26.373 34.504 26.918 33.656 26.991 32.716L26.992 32.706L26.993 32.696L26.999 32.519L27 32.509V32.5V20.5V20H26.5L18.5 19.999H18V20.499M28 21.499V21.999H28.5L32.5 22C32.752 22 32.961 22.186 32.995 22.429L33 22.514V31.5C33 31.752 32.813 31.961 32.571 31.995L32.485 32H28.5H28V32.5C28 33.827 27.306 35.068 26.102 35.922C25.201 36.561 24.07 36.942 22.862 36.993L22.571 37H15.5C13.082 37 11.109 35.092 11.004 32.7L11 32.494V19.5C11 19.248 11.187 19.039 11.429 19.005L11.514 19H27.5C27.752 19 27.961 19.186 27.995 19.429L28 19.514V21.499ZM32 23.5V23H31.5H28.5H28V23.5V30.5V31H28.5H31.5H32V30.5V23.5Z" stroke="#3C3C3C"/>
<mask id="mask0_2_1348" style="mask-type:alpha" maskUnits="userSpaceOnUse" x="13" y="6" width="18" height="13">
<path d="M18.375 6.75C18.375 6.75 18.375 10.625 16.125 12.75C13.996 14.761 14.625 17.875 14.625 17.875" stroke="#FF0000" stroke-width="2.8"/>
<path d="M23.884 6.75C23.884 6.75 23.884 10.625 21.634 12.75C19.505 14.761 20.134 17.875 20.134 17.875" stroke="#FF0000" stroke-width="2.8"/>
<path d="M29.15 6.75C29.15 6.75 29.15 10.625 26.9 12.75C24.771 14.761 25.4 17.875 25.4 17.875" stroke="#FF0000" stroke-width="2.8"/>
</mask>
<g mask="url(#mask0_2_1348)">
<path d="M21.725 13.568L21.721 13.574L21.376 14.127L21.373 14.132C20.71 15.227 20.318 16.069 20.133 16.999L19.111 17C19.292 15.907 19.713 14.944 20.51 13.628L20.876 13.038L21.077 12.725C21.077 12.725 21.077 12.725 21.078 12.725C21.78 11.64 22.263 10.807 22.567 10.007C22.82 9.343 22.944 8.715 22.981 8L23.983 8.001C23.914 9.573 23.499 10.69 22.482 12.37L22.115 12.959L21.725 13.568ZM26.725 13.568L26.721 13.574L26.376 14.127L26.373 14.132C25.71 15.227 25.319 16.069 25.133 16.999L24.111 17C24.292 15.907 24.713 14.944 25.51 13.628L25.876 13.038L26.077 12.725C26.077 12.725 26.077 12.725 26.078 12.725C26.78 11.64 27.263 10.807 27.567 10.007C27.82 9.343 27.944 8.715 27.981 8L28.983 8.001C28.914 9.573 28.499 10.69 27.482 12.37L27.115 12.959L26.725 13.568ZM17.157 11.872C17.157 11.872 17.157 11.873 17.156 11.873L16.915 12.245V12.246C16.215 13.318 15.731 14.15 15.427 14.956C15.173 15.627 15.048 16.268 15.011 16.999L14.01 17C14.045 16.18 14.171 15.493 14.41 14.807C14.7 13.978 15.162 13.127 15.869 12.021L16.114 11.643C16.115 11.643 16.115 11.642 16.115 11.642C17.087 10.152 17.631 9.143 17.861 8H18.883C18.677 9.229 18.166 10.295 17.157 11.872Z" fill="#3C3C3C"/>
<path d="M21.725 13.568L21.721 13.574L21.376 14.127L21.373 14.132C20.71 15.227 20.318 16.069 20.133 16.999L19.111 17C19.292 15.907 19.713 14.944 20.51 13.628L20.876 13.038L21.077 12.725C21.077 12.725 21.077 12.725 21.078 12.725C21.78 11.64 22.263 10.807 22.567 10.007C22.82 9.343 22.944 8.715 22.981 8L23.983 8.001C23.914 9.573 23.499 10.69 22.482 12.37L22.115 12.959L21.725 13.568ZM26.725 13.568L26.721 13.574L26.376 14.127L26.373 14.132C25.71 15.227 25.319 16.069 25.133 16.999L24.111 17C24.292 15.907 24.713 14.944 25.51 13.628L25.876 13.038L26.077 12.725C26.077 12.725 26.077 12.725 26.078 12.725C26.78 11.64 27.263 10.807 27.567 10.007C27.82 9.343 27.944 8.715 27.981 8L28.983 8.001C28.914 9.573 28.499 10.69 27.482 12.37L27.115 12.959L26.725 13.568ZM17.157 11.872C17.157 11.872 17.157 11.873 17.156 11.873L16.915 12.245V12.246C16.215 13.318 15.731 14.15 15.427 14.956C15.173 15.627 15.048 16.268 15.011 16.999L14.01 17C14.045 16.18 14.171 15.493 14.41 14.807C14.7 13.978 15.162 13.127 15.869 12.021L16.114 11.643C16.115 11.643 16.115 11.642 16.115 11.642C17.087 10.152 17.631 9.143 17.861 8H18.883C18.677 9.229 18.166 10.295 17.157 11.872Z" stroke="#3C3C3C"/>
</g>
</svg>
