<svg width="45" height="45" viewBox="0 0 45 45" fill="none" xmlns="http://www.w3.org/2000/svg">
<path d="M33.4999 20.757V13.672H34.4999V22.757V22.964L34.6459 23.111L36.9999 25.464L36.2929 26.172L35.3529 25.232L34.4999 24.377V25.585V26.172C34.4999 26.812 34.2599 27.395 33.8639 27.838L33.5649 28.171L33.8629 28.505C34.2279 28.912 34.4599 29.438 34.4949 30.017L34.4999 30.179V31.172C34.4999 31.812 34.2599 32.395 33.8639 32.838L33.5649 33.171L33.8629 33.505C34.2279 33.912 34.4599 34.438 34.4949 35.017L34.4999 35.179V36.172C34.4999 37.501 33.4629 38.588 32.1539 38.667L31.9929 38.672H11.9999C10.6709 38.672 9.58388 37.635 9.50488 36.326L9.49988 36.164V35.172C9.49988 34.531 9.73988 33.948 10.1359 33.505L10.4349 33.172L10.1359 32.838C9.77188 32.431 9.53988 31.905 9.50488 31.326L9.49988 31.164V30.172C9.49988 29.531 9.73988 28.948 10.1359 28.505L10.4349 28.172L10.1359 27.838C9.78188 27.442 9.55188 26.933 9.50788 26.371L9.49988 26.162V25.585V24.378L8.64588 25.232L7.70688 26.172L6.99988 25.465L20.2319 12.232C21.1669 11.297 22.6599 11.258 23.6409 12.114L23.7729 12.238L32.6459 21.111L33.4999 21.964V20.757ZM17.4999 34.171V33.671H16.9999L11.9999 33.672C11.2299 33.672 10.5969 34.251 10.5099 34.997L10.5079 35.012L10.5069 35.026L10.5009 35.143L10.4999 35.157V35.172V36.172C10.4999 36.941 11.0789 37.575 11.8259 37.662L11.8399 37.663L11.8539 37.664L11.9709 37.671L11.9849 37.672H11.9999H16.9999H17.4999V37.172V34.171ZM25.4999 28.172V27.672H24.9999H18.9999H18.4999V28.172V37.172V37.672H18.9999H24.9999H25.4999V37.172V28.172ZM32.0289 33.672H32.0139H31.9999L26.9999 33.671H26.4999V34.171V37.172V37.672H26.9999H31.9999C32.7689 37.672 33.4029 37.092 33.4899 36.346L33.4909 36.332L33.4919 36.317L33.4989 36.2L33.4999 36.186V36.172V35.172C33.4999 34.402 32.9209 33.768 32.1739 33.682L32.1599 33.68L32.1449 33.679L32.0289 33.672ZM32.0289 28.672H32.0139H31.9999L26.9999 28.671H26.4999V29.171V32.171V32.671H26.9999L31.9999 32.672C32.7689 32.672 33.4029 32.092 33.4899 31.346L33.4909 31.332L33.4919 31.317L33.4989 31.2L33.4999 31.186V31.172V30.172C33.4999 29.402 32.9209 28.768 32.1739 28.682L32.1599 28.68L32.1449 28.679L32.0289 28.672ZM17.4999 29.171V28.671H16.9999L11.9999 28.672C11.2299 28.672 10.5969 29.251 10.5099 29.997L10.5079 30.012L10.5069 30.026L10.5009 30.143L10.4999 30.157V30.172V31.172C10.4999 31.941 11.0789 32.575 11.8259 32.662L11.8399 32.663L11.8539 32.664L11.9709 32.671L11.9849 32.672H11.9999L16.9999 32.671H17.4999V32.171V29.171ZM10.5099 24.997L10.5079 25.012L10.5069 25.026L10.5009 25.143L10.4999 25.157V25.172V26.172C10.4999 26.941 11.0789 27.575 11.8259 27.662L11.8399 27.663L11.8539 27.664L11.9709 27.671L11.9849 27.672H11.9999L17.2679 27.671H17.5559L17.6999 27.421C17.9419 27.005 18.3759 26.716 18.8789 26.676L19.0089 26.672H24.9999C25.5539 26.672 26.0389 26.972 26.2989 27.422L26.4439 27.671H26.7319L31.9999 27.672C32.7689 27.672 33.4029 27.092 33.4899 26.346L33.4909 26.332L33.4919 26.317L33.4989 26.2L33.4999 26.186V26.172V25.172C33.4999 24.343 32.8279 23.672 31.9999 23.672H11.9999C11.2299 23.672 10.5969 24.251 10.5099 24.997ZM28.9389 18.817L28.7929 18.671H28.5859H15.4139H15.2069L15.0599 18.817L12.0599 21.817L11.2069 22.671H12.4139H31.5859H32.7929L31.9389 21.817L28.9389 18.817ZM21.0799 12.815L21.0679 12.825L21.0559 12.835L20.9619 12.918L20.9499 12.928L20.9389 12.939L17.0599 16.817L16.2059 17.671H17.4139H26.5859H27.7929L26.9389 16.817L23.0599 12.939C22.5189 12.398 21.6689 12.357 21.0799 12.815Z" fill="#3C3C3C"/>
<path d="M33.4999 20.757V13.672H34.4999V22.757V22.964L34.6459 23.111L36.9999 25.464L36.2929 26.172L35.3529 25.232L34.4999 24.377V25.585V26.172C34.4999 26.812 34.2599 27.395 33.8639 27.838L33.5649 28.171L33.8629 28.505C34.2279 28.912 34.4599 29.438 34.4949 30.017L34.4999 30.179V31.172C34.4999 31.812 34.2599 32.395 33.8639 32.838L33.5649 33.171L33.8629 33.505C34.2279 33.912 34.4599 34.438 34.4949 35.017L34.4999 35.179V36.172C34.4999 37.501 33.4629 38.588 32.1539 38.667L31.9929 38.672H11.9999C10.6709 38.672 9.58388 37.635 9.50488 36.326L9.49988 36.164V35.172C9.49988 34.531 9.73988 33.948 10.1359 33.505L10.4349 33.172L10.1359 32.838C9.77188 32.431 9.53988 31.905 9.50488 31.326L9.49988 31.164V30.172C9.49988 29.531 9.73988 28.948 10.1359 28.505L10.4349 28.172L10.1359 27.838C9.78188 27.442 9.55188 26.933 9.50788 26.371L9.49988 26.162V25.585V24.378L8.64588 25.232L7.70688 26.172L6.99988 25.465L20.2319 12.232C21.1669 11.297 22.6599 11.258 23.6409 12.114L23.7729 12.238L32.6459 21.111L33.4999 21.964V20.757ZM17.4999 34.171V33.671H16.9999L11.9999 33.672C11.2299 33.672 10.5969 34.251 10.5099 34.997L10.5079 35.012L10.5069 35.026L10.5009 35.143L10.4999 35.157V35.172V36.172C10.4999 36.941 11.0789 37.575 11.8259 37.662L11.8399 37.663L11.8539 37.664L11.9709 37.671L11.9849 37.672H11.9999H16.9999H17.4999V37.172V34.171ZM25.4999 28.172V27.672H24.9999H18.9999H18.4999V28.172V37.172V37.672H18.9999H24.9999H25.4999V37.172V28.172ZM32.0289 33.672H32.0139H31.9999L26.9999 33.671H26.4999V34.171V37.172V37.672H26.9999H31.9999C32.7689 37.672 33.4029 37.092 33.4899 36.346L33.4909 36.332L33.4919 36.317L33.4989 36.2L33.4999 36.186V36.172V35.172C33.4999 34.402 32.9209 33.768 32.1739 33.682L32.1599 33.68L32.1449 33.679L32.0289 33.672ZM32.0289 28.672H32.0139H31.9999L26.9999 28.671H26.4999V29.171V32.171V32.671H26.9999L31.9999 32.672C32.7689 32.672 33.4029 32.092 33.4899 31.346L33.4909 31.332L33.4919 31.317L33.4989 31.2L33.4999 31.186V31.172V30.172C33.4999 29.402 32.9209 28.768 32.1739 28.682L32.1599 28.68L32.1449 28.679L32.0289 28.672ZM17.4999 29.171V28.671H16.9999L11.9999 28.672C11.2299 28.672 10.5969 29.251 10.5099 29.997L10.5079 30.012L10.5069 30.026L10.5009 30.143L10.4999 30.157V30.172V31.172C10.4999 31.941 11.0789 32.575 11.8259 32.662L11.8399 32.663L11.8539 32.664L11.9709 32.671L11.9849 32.672H11.9999L16.9999 32.671H17.4999V32.171V29.171ZM10.5099 24.997L10.5079 25.012L10.5069 25.026L10.5009 25.143L10.4999 25.157V25.172V26.172C10.4999 26.941 11.0789 27.575 11.8259 27.662L11.8399 27.663L11.8539 27.664L11.9709 27.671L11.9849 27.672H11.9999L17.2679 27.671H17.5559L17.6999 27.421C17.9419 27.005 18.3759 26.716 18.8789 26.676L19.0089 26.672H24.9999C25.5539 26.672 26.0389 26.972 26.2989 27.422L26.4439 27.671H26.7319L31.9999 27.672C32.7689 27.672 33.4029 27.092 33.4899 26.346L33.4909 26.332L33.4919 26.317L33.4989 26.2L33.4999 26.186V26.172V25.172C33.4999 24.343 32.8279 23.672 31.9999 23.672H11.9999C11.2299 23.672 10.5969 24.251 10.5099 24.997ZM28.9389 18.817L28.7929 18.671H28.5859H15.4139H15.2069L15.0599 18.817L12.0599 21.817L11.2069 22.671H12.4139H31.5859H32.7929L31.9389 21.817L28.9389 18.817ZM21.0799 12.815L21.0679 12.825L21.0559 12.835L20.9619 12.918L20.9499 12.928L20.9389 12.939L17.0599 16.817L16.2059 17.671H17.4139H26.5859H27.7929L26.9389 16.817L23.0599 12.939C22.5189 12.398 21.6689 12.357 21.0799 12.815Z" stroke="#3C3C3C"/>
</svg>
