<svg width="45" height="45" viewBox="0 0 45 45" fill="none" xmlns="http://www.w3.org/2000/svg">
<path d="M38 32H17.874C17.652 32.858 17.15 33.618 16.449 34.161C15.748 34.704 14.887 34.998 14 34.998C13.113 34.998 12.252 34.704 11.551 34.161C10.85 33.618 10.348 32.858 10.126 32H8C7.495 32 7.009 31.81 6.639 31.466C6.269 31.123 6.043 30.653 6.005 30.15L6 30V15.21C6 12.41 8.188 10.12 10.936 10.005L11.154 10H28.846C31.623 10 33.881 12.218 33.996 14.99L34 15.21V30H36V28H38V32ZM14 29C13.47 29 12.961 29.211 12.586 29.586C12.211 29.961 12 30.47 12 31C12 31.53 12.211 32.039 12.586 32.414C12.961 32.789 13.47 33 14 33C14.53 33 15.039 32.789 15.414 32.414C15.789 32.039 16 31.53 16 31C16 30.47 15.789 29.961 15.414 29.586C15.039 29.211 14.53 29 14 29ZM28.846 12H11.154C9.475 12 8.098 13.337 8.005 15.028L8 15.211V30H10.126C10.348 29.142 10.85 28.382 11.551 27.839C12.252 27.296 13.113 27.002 14 27.002C14.887 27.002 15.748 27.296 16.449 27.839C17.15 28.382 17.652 29.142 17.874 30H20V17.167C20 16.022 20.888 15.085 22.012 15.005L22.167 15H26.833C27.978 15 28.915 15.888 28.995 17.012L29 17.167V30H32V15.21C32 13.496 30.68 12.1 29.025 12.005L28.846 12ZM26.833 17H22.167C22.132 17 22.098 17.011 22.069 17.031C22.04 17.052 22.019 17.081 22.008 17.114L22 17.167V30H27V17.167C27 17.132 26.989 17.098 26.969 17.069C26.948 17.041 26.919 17.019 26.886 17.008L26.833 17ZM16 15C16.505 15 16.991 15.19 17.361 15.533C17.73 15.877 17.957 16.347 17.995 16.85L18 17V21C18 21.505 17.81 21.991 17.467 22.361C17.123 22.73 16.653 22.957 16.15 22.995L16 23H12C11.495 23 11.009 22.81 10.639 22.467C10.269 22.123 10.043 21.653 10.005 21.15L10 21V17C10 16.495 10.19 16.009 10.533 15.639C10.877 15.269 11.347 15.043 11.85 15.005L12 15H16ZM16 17H12V21H16V17Z" fill="#3C3C3C"/>
</svg>
