<svg width="45" height="45" viewBox="0 0 45 45" fill="none" xmlns="http://www.w3.org/2000/svg">
<path d="M35 8.5C35.505 8.5 35.991 8.69 36.361 9.033C36.73 9.377 36.957 9.847 36.995 10.35L37 10.5V12.5C37 13.005 36.81 13.491 36.467 13.861C36.123 14.231 35.653 14.457 35.15 14.495L35 14.5V23.5H37V25.5H35V34.5C35 35.005 34.81 35.491 34.467 35.861C34.123 36.23 33.653 36.457 33.15 36.495L33 36.5H11C10.495 36.5 10.009 36.31 9.639 35.966C9.269 35.623 9.043 35.153 9.005 34.65L9 34.5V25.5H7V23.5H9V14.5L8.85 14.495C8.374 14.459 7.926 14.254 7.588 13.917C7.25 13.58 7.043 13.133 7.006 12.657L7 12.5V10.5C7 9.995 7.19 9.509 7.533 9.139C7.877 8.769 8.347 8.543 8.85 8.505L9 8.5H35ZM33 25.5H11V34.5H13V31.5C13 30.456 13.408 29.454 14.136 28.707C14.865 27.96 15.857 27.527 16.9 27.501C17.943 27.475 18.955 27.858 19.72 28.567C20.485 29.277 20.943 30.258 20.995 31.3L21 31.5V34.5H23V31.5C23 30.456 23.408 29.454 24.136 28.707C24.865 27.96 25.857 27.527 26.9 27.501C27.943 27.475 28.955 27.858 29.72 28.567C30.485 29.277 30.943 30.258 30.995 31.3L31 31.5V34.5H33V25.5ZM17 29.5C16.495 29.5 16.009 29.69 15.639 30.033C15.269 30.377 15.043 30.847 15.005 31.35L15 31.5V34.5H19V31.5C19 30.97 18.789 30.461 18.414 30.086C18.039 29.711 17.53 29.5 17 29.5ZM27 29.5C26.495 29.5 26.009 29.69 25.639 30.033C25.27 30.377 25.043 30.847 25.005 31.35L25 31.5V34.5H29V31.5C29 30.97 28.789 30.461 28.414 30.086C28.039 29.711 27.53 29.5 27 29.5ZM33 14.5H11V23.5H13V20.5C13 19.456 13.408 18.454 14.136 17.707C14.865 16.96 15.857 16.527 16.9 16.501C17.943 16.475 18.955 16.858 19.72 17.567C20.485 18.277 20.943 19.258 20.995 20.3L21 20.5V23.5H23V20.5C23 19.456 23.408 18.454 24.136 17.707C24.865 16.96 25.857 16.527 26.9 16.501C27.943 16.475 28.955 16.858 29.72 17.567C30.485 18.277 30.943 19.258 30.995 20.3L31 20.5V23.5H33V14.5ZM17 18.5C16.495 18.5 16.009 18.69 15.639 19.033C15.269 19.377 15.043 19.847 15.005 20.35L15 20.5V23.5H19V20.5C19 19.97 18.789 19.461 18.414 19.086C18.039 18.711 17.53 18.5 17 18.5ZM27 18.5C26.495 18.5 26.009 18.69 25.639 19.033C25.27 19.377 25.043 19.847 25.005 20.35L25 20.5V23.5H29V20.5C29 19.97 28.789 19.461 28.414 19.086C28.039 18.711 27.53 18.5 27 18.5ZM35 10.5H9V12.5H35V10.5Z" fill="#3C3C3C"/>
</svg>
