<svg width="45" height="45" viewBox="0 0 45 45" fill="none" xmlns="http://www.w3.org/2000/svg">
<path d="M21.1062 9.928C21.2112 9.717 21.3872 9.551 21.6032 9.457C21.8192 9.364 22.0612 9.35 22.2872 9.417L22.4012 9.459L30.4012 12.959C30.5832 13.039 30.7372 13.171 30.8442 13.339L30.9022 13.442L36.9022 25.942C36.9502 26.043 36.9822 26.152 36.9942 26.263L37.0002 26.375V35.375C37.0002 35.62 36.9102 35.856 36.7472 36.039C36.5852 36.223 36.3602 36.339 36.1172 36.368L36.0002 36.375H8.00023C7.86223 36.375 7.72523 36.346 7.59923 36.291C7.47223 36.236 7.35923 36.155 7.26523 36.053C7.17123 35.952 7.10023 35.832 7.05523 35.702C7.00923 35.571 6.99223 35.433 7.00323 35.295L7.01923 35.179L10.0192 20.179C10.0512 20.02 10.1212 19.87 10.2242 19.744C10.3272 19.618 10.4592 19.519 10.6092 19.455L10.7252 19.413L17.3022 17.534L21.1062 9.928ZM22.4692 11.672L18.8942 18.822C18.7872 19.036 18.6072 19.204 18.3872 19.297L18.2752 19.337L11.8612 21.168L11.0192 25.375H14.0002V27.375H10.6192L9.21923 34.375H15.9992L16.0002 32.375C16.0002 30.823 16.6022 29.331 17.6782 28.213C18.7552 27.094 20.2242 26.437 21.7752 26.379L22.0002 26.375C23.5522 26.375 25.0442 26.977 26.1622 28.053C27.2812 29.13 27.9382 30.599 27.9962 32.15L28.0002 32.375V34.375H35.0002V26.603L34.4102 25.375H30.0002V23.375H33.4502L32.0002 20.352V20.375H25.0002V18.375H31.0502L29.2602 14.642L22.4702 11.672H22.4692ZM22.0002 28.375C20.9742 28.375 19.9872 28.77 19.2432 29.477C18.5002 30.184 18.0562 31.15 18.0052 32.175L18.0002 32.375V34.375H26.0002V32.375C26.0002 31.384 25.6322 30.428 24.9682 29.693C24.3032 28.957 23.3892 28.495 22.4032 28.395L22.2002 28.38L22.0002 28.375Z" fill="#3C3C3C"/>
</svg>
