<svg width="45" height="45" viewBox="0 0 45 45" fill="none" xmlns="http://www.w3.org/2000/svg">
<path d="M33 8.5C34.054 8.5 34.918 9.316 34.995 10.351L35 10.5V34.5C35 35.554 34.184 36.418 33.149 36.494L33 36.5H11C9.946 36.5 9.082 35.684 9.005 34.649L9 34.5V10.5C9 9.446 9.816 8.582 10.851 8.505L11 8.5H33ZM33 10.5H11V34.5H17V21.5C17 18.739 19.239 16.5 22 16.5C24.689 16.5 26.882 18.622 26.995 21.283L27 21.5V34.5H33V10.5ZM25 32.5H19V34.5H25V32.5ZM25 28.5H19V30.5H25V28.5ZM22 18.5C20.402 18.5 19.096 19.749 19.005 21.324L19 21.5V26.5H25V21.5C25 19.843 23.657 18.5 22 18.5ZM22 12.5C22.552 12.5 23 12.948 23 13.5C23 14.052 22.552 14.5 22 14.5C21.448 14.5 21 14.052 21 13.5C21 12.948 21.448 12.5 22 12.5Z" fill="#3C3C3C"/>
</svg>
