<svg width="45" height="45" viewBox="0 0 45 45" fill="none" xmlns="http://www.w3.org/2000/svg">
<path d="M22 9.5C24.578 9.5 27.055 10.199 29.213 11.499L29.635 11.764L29.701 11.808L29.983 12.006L30.137 12.12L30.526 12.424C30.665 12.536 30.81 12.657 30.962 12.786C31.449 13.2 32.055 13.447 32.689 13.493L32.901 13.5H36C36.513 13.5 36.936 13.886 36.993 14.383L37 14.5V34.5C37 35.013 36.614 35.436 36.117 35.493L36 35.5H8C7.487 35.5 7.064 35.114 7.007 34.617L7 34.5V14.5C7 13.987 7.386 13.564 7.883 13.507L8 13.5H11.098C11.809 13.5 12.497 13.248 13.038 12.789C13.62 12.296 14.118 11.917 14.539 11.652C16.755 10.253 19.323 9.5 22 9.5ZM13 29.5H9V33.5H13V29.5ZM31 29.5H27V33.5H31V29.5ZM22 22.5C20.402 22.5 19.096 23.749 19.005 25.324L19 25.5V33.5H25V25.5C25 23.962 23.842 22.693 22.35 22.52L22.176 22.505L22 22.5ZM17 29.5H15V33.5H17V29.5ZM35 29.5H33V33.5H35V29.5ZM29 23.5L26.584 23.501C26.813 24.025 26.955 24.597 26.991 25.197L27 25.5V27.5H29V23.5ZM11 23.5H9V27.5H11V23.5ZM17.416 23.501L13 23.5V27.5H17V25.5C17 24.789 17.148 24.113 17.416 23.501ZM35 23.5H31V27.5H35V23.5ZM31 18.5H23L23.001 20.6C23.648 20.732 24.249 20.988 24.779 21.343L25 21.5H31V18.5ZM21 18.5H14V21.5H19C19.581 21.063 20.261 20.75 21 20.6V18.5ZM35 18.5H33V21.5H35V18.5ZM12 18.5H9V21.5H12V18.5ZM22 11.5C19.704 11.5 17.505 12.145 15.607 13.343C15.276 13.552 14.849 13.876 14.331 14.315C13.492 15.025 12.445 15.438 11.352 15.494L11.099 15.5L9 15.499V16.5H35V15.499L32.9 15.5C31.891 15.499 30.91 15.193 30.084 14.628L29.862 14.468L29.665 14.309L29.283 13.991L28.92 13.708C28.76 13.587 28.615 13.485 28.487 13.403C26.568 12.167 24.335 11.5 22 11.5Z" fill="#3C3C3C"/>
<path d="M22 9.5C24.578 9.5 27.055 10.199 29.213 11.499L29.635 11.764L29.701 11.808L29.983 12.006L30.137 12.12L30.526 12.424C30.665 12.536 30.81 12.657 30.962 12.786C31.449 13.2 32.055 13.447 32.689 13.493L32.901 13.5H36C36.513 13.5 36.936 13.886 36.993 14.383L37 14.5V34.5C37 35.013 36.614 35.436 36.117 35.493L36 35.5H8C7.487 35.5 7.064 35.114 7.007 34.617L7 34.5V14.5C7 13.987 7.386 13.564 7.883 13.507L8 13.5H11.098C11.809 13.5 12.497 13.248 13.038 12.789C13.62 12.296 14.118 11.917 14.539 11.652C16.755 10.253 19.323 9.5 22 9.5ZM13 29.5H9V33.5H13V29.5ZM31 29.5H27V33.5H31V29.5ZM22 22.5C20.402 22.5 19.096 23.749 19.005 25.324L19 25.5V33.5H25V25.5C25 23.962 23.842 22.693 22.35 22.52L22.176 22.505L22 22.5ZM17 29.5H15V33.5H17V29.5ZM35 29.5H33V33.5H35V29.5ZM29 23.5L26.584 23.501C26.813 24.025 26.955 24.597 26.991 25.197L27 25.5V27.5H29V23.5ZM11 23.5H9V27.5H11V23.5ZM17.416 23.501L13 23.5V27.5H17V25.5C17 24.789 17.148 24.113 17.416 23.501ZM35 23.5H31V27.5H35V23.5ZM31 18.5H23L23.001 20.6C23.648 20.732 24.249 20.988 24.779 21.343L25 21.5H31V18.5ZM21 18.5H14V21.5H19C19.581 21.063 20.261 20.75 21 20.6V18.5ZM35 18.5H33V21.5H35V18.5ZM12 18.5H9V21.5H12V18.5ZM22 11.5C19.704 11.5 17.505 12.145 15.607 13.343C15.276 13.552 14.849 13.876 14.331 14.315C13.492 15.025 12.445 15.438 11.352 15.494L11.099 15.5L9 15.499V16.5H35V15.499L32.9 15.5C31.891 15.499 30.91 15.193 30.084 14.628L29.862 14.468L29.665 14.309L29.283 13.991L28.92 13.708C28.76 13.587 28.615 13.485 28.487 13.403C26.568 12.167 24.335 11.5 22 11.5Z" fill="#3C3C3C"/>
</svg>
