<svg width="45" height="45" viewBox="0 0 45 45" fill="none" xmlns="http://www.w3.org/2000/svg">
<path d="M34 8.5V15.286C35.236 17.336 35.922 19.67 35.993 22.062L36 22.5V34.5C36 35.005 35.81 35.491 35.467 35.861C35.123 36.23 34.653 36.457 34.15 36.495L34 36.5H10C9.495 36.5 9.009 36.31 8.639 35.966C8.269 35.623 8.043 35.153 8.005 34.65L8 34.5V22.5C8 14.768 14.268 8.5 22 8.5C25.918 8.5 29.46 10.11 32 12.703V8.5H34ZM22 10.5C15.475 10.5 10.166 15.709 10.004 22.195L10 22.5V34.5H17V24.5H15V22.5H29V24.5H27V34.5H34V22.5C34 15.873 28.627 10.5 22 10.5ZM25 24.5H19V34.5H25V24.5ZM22 17.5C22.265 17.5 22.52 17.605 22.707 17.793C22.895 17.98 23 18.235 23 18.5C23 18.765 22.895 19.02 22.707 19.207C22.52 19.395 22.265 19.5 22 19.5C21.735 19.5 21.48 19.395 21.293 19.207C21.105 19.02 21 18.765 21 18.5C21 18.235 21.105 17.98 21.293 17.793C21.48 17.605 21.735 17.5 22 17.5Z" fill="#3C3C3C"/>
</svg>
