<svg width="45" height="45" viewBox="0 0 45 45" fill="none" xmlns="http://www.w3.org/2000/svg">
<path d="M14.5 8.5C16.914 8.5 18.885 10.401 18.995 12.788L19 13V17.698L24.405 13.696C24.733 13.453 25.172 13.437 25.514 13.642L25.625 13.719L31 18.02V14.5H33V19.62L35.625 21.719L34.375 23.281L33 22.18L32.999 26.5H35C35.513 26.5 35.936 26.886 35.993 27.383L36 27.5V35.5C36 36.013 35.614 36.436 35.117 36.493L35 36.5H8V34.5H15.545L17.295 32.5H8V30.5H19V30.552L20.795 28.5H8V26.5H10V13C10 10.515 12.015 8.5 14.5 8.5ZM26.795 28.5H23.453L18.203 34.5H21.545L26.795 28.5ZM34 30.16L30.203 34.5H34V30.16ZM32.795 28.5H29.453L24.203 34.5H27.545L32.795 28.5ZM31 20.58L24.976 15.761L19 20.187V26.5H21.999L22 22.5C22 21.987 22.386 21.564 22.883 21.507L23 21.5H27C27.513 21.5 27.936 21.886 27.993 22.383L28 22.5L27.999 26.5H30.999L31 20.58ZM14.5 10.5C13.175 10.5 12.09 11.532 12.005 12.836L12 13V26.5H17V13C17 11.619 15.881 10.5 14.5 10.5ZM26 23.5H24V26.5H26V23.5Z" fill="#3C3C3C"/>
</svg>
