<svg width="45" height="45" viewBox="0 0 45 45" fill="none" xmlns="http://www.w3.org/2000/svg">
<path d="M34 8.5C35.054 8.5 35.918 9.316 35.995 10.351L36 10.5V34.5C36 35.554 35.184 36.418 34.149 36.494L34 36.5H10C8.946 36.5 8.082 35.684 8.005 34.649L8 34.5V10.5C8 9.446 8.816 8.582 9.851 8.505L10 8.5H34ZM22 13.415L18.914 16.5H10V34.5H18V29.5C18 28.446 18.816 27.582 19.851 27.505L20 27.5H24C25.054 27.5 25.918 28.316 25.995 29.351L26 29.5V34.5H34V16.5H25.086L22 13.415ZM24 29.5H20V34.5H24V29.5ZM30 27.5C30.552 27.5 31 27.948 31 28.5C31 29.052 30.552 29.5 30 29.5C29.448 29.5 29 29.052 29 28.5C29 27.948 29.448 27.5 30 27.5ZM14 27.5C14.552 27.5 15 27.948 15 28.5C15 29.052 14.552 29.5 14 29.5C13.448 29.5 13 29.052 13 28.5C13 27.948 13.448 27.5 14 27.5ZM30 23.5C30.552 23.5 31 23.948 31 24.5C31 25.052 30.552 25.5 30 25.5C29.448 25.5 29 25.052 29 24.5C29 23.948 29.448 23.5 30 23.5ZM14 23.5C14.552 23.5 15 23.948 15 24.5C15 25.052 14.552 25.5 14 25.5C13.448 25.5 13 25.052 13 24.5C13 23.948 13.448 23.5 14 23.5ZM30 19.5C30.552 19.5 31 19.948 31 20.5C31 21.052 30.552 21.5 30 21.5C29.448 21.5 29 21.052 29 20.5C29 19.948 29.448 19.5 30 19.5ZM22 19.5C22.552 19.5 23 19.948 23 20.5C23 21.052 22.552 21.5 22 21.5C21.448 21.5 21 21.052 21 20.5C21 19.948 21.448 19.5 22 19.5ZM14 19.5C14.552 19.5 15 19.948 15 20.5C15 21.052 14.552 21.5 14 21.5C13.448 21.5 13 21.052 13 20.5C13 19.948 13.448 19.5 14 19.5ZM34 14.5V10.5H10V14.5H18.084L20.586 12C21.326 11.26 22.501 11.221 23.287 11.883L23.414 12L25.915 14.5H34Z" fill="#3C3C3C"/>
</svg>
