<svg width="45" height="45" viewBox="0 0 45 45" fill="none" xmlns="http://www.w3.org/2000/svg">
<path d="M22.787 7.916C23.219 7.933 23.645 8.089 23.994 8.383L24.121 8.5L30.707 15.086V11.5H32.707V17.086L36.414 20.793L35 22.207L32.707 19.914V28.5H35.707V29.5C35.707 31.298 35.11 33 34.048 34.379L34.319 34.587C34.653 34.82 35.071 34.961 35.515 34.993L35.707 35V37L35.449 36.993C34.602 36.952 33.784 36.667 33.096 36.172L32.762 35.912C32.352 35.637 31.868 35.494 31.374 35.5C30.88 35.494 30.396 35.637 29.986 35.912L29.651 36.172C28.912 36.714 27.989 37 27.041 37C26.091 37 25.169 36.714 24.43 36.172L24.095 35.912C23.685 35.637 23.201 35.494 22.707 35.5C22.213 35.494 21.729 35.637 21.319 35.912L20.985 36.172C20.245 36.714 19.322 37 18.374 37C17.425 37 16.502 36.714 15.764 36.172L15.428 35.912C15.018 35.637 14.534 35.494 14.04 35.5C13.546 35.494 13.062 35.637 12.652 35.912L12.318 36.172C11.629 36.667 10.812 36.952 9.965 36.992L9.707 37V35L9.899 34.993C10.327 34.967 10.74 34.827 11.095 34.588L11.232 34.483L11.366 34.378C10.405 33.13 9.834 31.625 9.726 30.053L9.711 29.758L9.69 28.5H12.707V19.914L10.414 22.207L9 20.793L21.293 8.5C21.663 8.13 22.142 7.935 22.626 7.916H22.788H22.787ZM33.623 30.5H11.79L11.797 30.54C11.995 31.67 12.513 32.719 13.291 33.562C13.539 33.52 13.79 33.5 14.041 33.5C14.989 33.5 15.912 33.786 16.651 34.329L16.986 34.588C17.367 34.853 17.858 35 18.374 35C18.889 35 19.38 34.853 19.762 34.587L20.096 34.328C20.837 33.786 21.759 33.5 22.707 33.5C23.656 33.5 24.579 33.786 25.318 34.328L25.653 34.588C26.033 34.853 26.525 35 27.041 35C27.556 35 28.047 34.853 28.428 34.587L28.763 34.328C29.503 33.786 30.425 33.5 31.373 33.5C31.626 33.5 31.878 33.52 32.123 33.56C32.879 32.741 33.391 31.727 33.6 30.632L33.622 30.5H33.623ZM22.707 9.915L14.707 17.915V28.5H18.707V24.5C18.707 23.995 18.897 23.509 19.24 23.139C19.584 22.769 20.054 22.543 20.557 22.505L20.707 22.5H24.707C25.212 22.5 25.697 22.69 26.068 23.033C26.437 23.377 26.664 23.847 26.702 24.35L26.707 24.5V28.5H30.707V17.914L22.707 9.915ZM24.707 24.5H20.707V28.5H24.707V24.5ZM22.707 14.5C23.503 14.5 24.266 14.816 24.828 15.379C25.391 15.941 25.707 16.704 25.707 17.5C25.707 18.296 25.391 19.059 24.828 19.621C24.266 20.184 23.503 20.5 22.707 20.5C21.911 20.5 21.148 20.184 20.586 19.621C20.023 19.059 19.707 18.296 19.707 17.5C19.707 16.704 20.023 15.941 20.586 15.379C21.148 14.816 21.911 14.5 22.707 14.5ZM22.707 16.5C22.442 16.5 22.187 16.605 22 16.793C21.812 16.98 21.707 17.235 21.707 17.5C21.707 17.765 21.812 18.02 22 18.207C22.187 18.395 22.442 18.5 22.707 18.5C22.972 18.5 23.227 18.395 23.414 18.207C23.602 18.02 23.707 17.765 23.707 17.5C23.707 17.235 23.602 16.98 23.414 16.793C23.227 16.605 22.972 16.5 22.707 16.5Z" fill="#3C3C3C"/>
</svg>
