<svg width="45" height="45" viewBox="0 0 45 45" fill="none" xmlns="http://www.w3.org/2000/svg">
<path d="M13 10.5V8.5H31V10.5H27L27.001 12.535C27.286 12.588 27.557 12.704 27.794 12.873L27.932 12.981L34.118 18.285C35.169 17.862 35.926 16.861 35.995 15.676L36 15.5V14.5H38V15.5C38 17.55 36.766 19.312 35.001 20.083L35 34.5C35 35.554 34.184 36.418 33.149 36.494L33 36.5H11C9.946 36.5 9.082 35.684 9.005 34.649L9 34.5V20.084C7.296 19.339 6.088 17.674 6.005 15.717L6 15.5V14.5H8V15.5C8 16.762 8.779 17.841 9.882 18.285L15.787 13.222C16.14 12.92 16.556 12.706 17 12.593V10.5H13ZM33 20.5H11V34.5H17V24.5C17 23.446 17.816 22.582 18.851 22.505L19 22.5H25C26.054 22.5 26.918 23.316 26.995 24.351L27 24.5V34.5H33V20.5ZM25 24.5H19V34.5H25V24.5ZM26.63 14.5H17.74C17.549 14.5 17.363 14.555 17.203 14.656L17.089 14.741L12.702 18.5H31.297L26.63 14.5ZM25 10.5H19V12.5H25V10.5Z" fill="#3C3C3C"/>
</svg>
