<svg width="45" height="45" viewBox="0 0 45 45" fill="none" xmlns="http://www.w3.org/2000/svg">
<path d="M10.599 8.5C10.599 9.554 11.414 10.418 12.449 10.495L12.599 10.5H32.599C33.653 10.5 34.516 9.684 34.593 8.649L34.599 8.5H36.599C36.599 10.141 35.61 11.552 34.196 12.168L37.968 18.205C38.407 18.908 38.194 19.833 37.492 20.272C37.301 20.391 37.087 20.466 36.865 20.491L36.696 20.5H36.599V34.5C36.599 35.554 35.783 36.418 34.748 36.494L34.599 36.5H10.599C9.545 36.5 8.681 35.684 8.604 34.649L8.599 34.5V20.5H8.5C7.672 20.5 7 19.828 7 19C7 18.775 7.051 18.554 7.147 18.352L7.229 18.205L11.002 12.169C9.645 11.577 8.68 10.255 8.604 8.7L8.599 8.5H10.599ZM17.597 30.5H10.597L10.599 34.5H17.597V30.5ZM25.599 25.5H19.599L19.597 34.5H25.597L25.599 25.5ZM27.597 34.5H34.599L34.597 30.5H27.597V34.5ZM34.599 20.5H10.599L10.597 28.5H17.597L17.599 25.5C17.599 24.446 18.414 23.582 19.449 23.505L19.599 23.5H25.599C26.653 23.5 27.516 24.316 27.593 25.351L27.599 25.5L27.597 28.5H34.597L34.599 20.5ZM32.044 12.5H13.151L9.401 18.5H35.794L32.044 12.5Z" fill="#3C3C3C"/>
</svg>
