<svg width="45" height="45" viewBox="0 0 45 45" fill="none" xmlns="http://www.w3.org/2000/svg">
<path d="M23.947 9.142L24.126 9.24L34.109 15.139L33.091 16.861L31.6 15.979V21C31.6 21.079 31.591 21.155 31.573 21.229L38.2 26.2L37 27.8L35.6 26.749V36C35.6 36.512 35.214 36.935 34.716 36.993L34.6 37H10.6C10.087 37 9.664 36.614 9.607 36.116L9.6 36V26.749L8.2 27.8L7 26.2L13.626 21.229L13.607 21.116L13.6 21V15.979L12.109 16.861L11.091 15.139L21.074 9.24C21.956 8.718 23.039 8.686 23.947 9.142ZM15.6 26.999L11.6 27V35L15.6 34.999V26.999ZM27.6 27H17.6V35L19.6 34.999V30C19.6 29.487 19.986 29.064 20.483 29.006L20.6 29H24.6C25.113 29 25.535 29.386 25.593 29.883L25.6 30V34.999L27.6 35V27ZM33.6 27L29.6 26.999V34.999L33.6 35V27ZM23.6 31H21.6V35H23.6V31ZM33.267 24.999L29.267 22L27.365 21.999L29.165 24.999H33.267ZM11.933 24.999H16.034L17.834 21.999L15.933 22L11.933 24.999ZM25.035 22H20.166L18.366 24.999H26.834L25.035 22ZM18.6 15.999L15.6 16V20L18.6 19.999V15.999ZM24.6 15.999H20.6V19.999H24.6V15.999ZM29.6 16L26.6 15.999V19.999L29.6 20V16ZM22.212 10.901L22.091 10.962L16.951 13.999H28.248L23.109 10.962C22.834 10.8 22.501 10.779 22.212 10.901Z" fill="#3C3C3C"/>
</svg>
