<svg width="45" height="45" viewBox="0 0 45 45" fill="none" xmlns="http://www.w3.org/2000/svg">
<path d="M23.6485 8.185L34.0655 12.98L34.1005 12.974C34.4695 12.881 34.7605 12.544 34.8065 12.118L34.8125 12H36.8125C36.8125 13.648 35.5145 15 33.8925 15C33.7975 15 33.7045 14.987 33.6135 14.96L33.4815 14.911L31.8125 14.158L31.8115 18H33.8125C34.3645 18 34.8125 18.448 34.8125 19C34.8125 20.679 36.0635 21.99 38.8125 22.945V25H35.8125V35C35.8125 36.054 34.9965 36.918 33.9615 36.994L33.8125 37H11.8125C10.7585 37 9.8945 36.184 9.8175 35.149L9.8125 35V25H6.8125V22.945C9.5615 21.99 10.8125 20.679 10.8125 19C10.8125 18.487 11.1985 18.064 11.6955 18.007L11.8125 18H13.8115L13.8125 14.189L12.5895 14.706L12.0795 14.915L11.9195 14.976L11.8735 14.99L11.7325 15C10.1685 15 8.9055 13.743 8.8175 12.175L8.8125 12H10.8125C10.8125 12.481 11.1215 12.872 11.5245 12.974L11.5585 12.98L21.9765 8.185C22.5065 7.941 23.1175 7.941 23.6485 8.185ZM33.8125 25H11.8125V35H16.8115L16.8125 29C16.8125 27.946 17.6285 27.082 18.6635 27.005L18.8125 27H26.8125C27.8665 27 28.7305 27.816 28.8065 28.851L28.8125 29L28.8115 35H33.8125V25ZM21.8125 29H18.8125L18.8115 35H21.8115L21.8125 29ZM26.8125 29H23.8125L23.8115 35H26.8115L26.8125 29ZM32.9065 20H12.7175L12.6845 20.167C12.4655 21.123 11.9695 21.969 11.2105 22.704L10.9975 22.901L10.8805 23H34.7435L34.6275 22.901C33.8215 22.186 33.2755 21.361 33.0075 20.425L32.9405 20.167L32.9065 20ZM18.8125 15H15.8125V18H18.8125V15ZM24.8125 15H20.8125V18H24.8125V15ZM29.8125 15H26.8125V18H29.8125V15ZM22.8135 10.097L16.4275 13H29.2465L22.8135 10.097Z" fill="#3C3C3C"/>
</svg>
