<svg width="45" height="45" viewBox="0 0 45 45" fill="none" xmlns="http://www.w3.org/2000/svg">
<path d="M32.625 8V11H33.625C36.314 11 38.507 13.122 38.62 15.783L38.625 16V19H37.625V30C37.625 30.513 37.239 30.936 36.742 30.993L36.625 31H32.625V37H30.625V35H25.625V37H23.625V31H18.09C18.399 31.534 18.588 32.147 18.62 32.8L18.625 33C18.625 35.209 16.834 37 14.625 37C12.416 37 10.625 35.209 10.625 33C10.625 32.271 10.82 31.588 11.16 31H8.625C8.112 31 7.689 30.614 7.632 30.117L7.625 30V19H6.625V16C6.625 13.311 8.747 11.118 11.408 11.005L11.625 11H30.625V8H32.625ZM14.625 31C13.52 31 12.625 31.895 12.625 33C12.625 34.105 13.52 35 14.625 35C15.73 35 16.625 34.105 16.625 33C16.625 31.895 15.73 31 14.625 31ZM30.625 31H25.625V33H30.625V31ZM23.625 19H9.624V29H23.625V19ZM30.624 27H25.624V29H30.624V27ZM35.624 19H32.625V29H35.624V19ZM30.624 19H25.624V25H30.624V19ZM33.625 13H11.625C10.027 13 8.721 14.249 8.63 15.824L8.625 16L8.624 17H36.624L36.625 16C36.625 14.461 35.467 13.193 33.975 13.02L33.801 13.005L33.625 13Z" fill="#3C3C3C"/>
</svg>
