<svg width="45" height="45" viewBox="0 0 45 45" fill="none" xmlns="http://www.w3.org/2000/svg">
<path d="M36.8125 7.606L37.7065 9.394L35.2595 10.618V35.5C35.2595 36.554 34.4435 37.418 33.4085 37.494L33.2595 37.5H11.2595C10.2055 37.5 9.3415 36.684 9.2655 35.649L9.2595 35.5V23.618L7.7065 24.394L6.8125 22.606L9.2595 21.383V13.5H11.2595V20.383L36.8125 7.606ZM33.2595 11.618L11.2595 22.618V35.5H17.2595V25.5C17.2595 24.446 18.0755 23.582 19.1105 23.505L19.2595 23.5H25.2595C26.3135 23.5 27.1775 24.316 27.2545 25.351L27.2595 25.5V35.5H33.2595V11.618ZM25.2595 25.5H19.2595V35.5H25.2595V25.5ZM30.2595 17.5C30.8115 17.5 31.2595 17.948 31.2595 18.5C31.2595 19.052 30.8115 19.5 30.2595 19.5C29.7075 19.5 29.2595 19.052 29.2595 18.5C29.2595 17.948 29.7075 17.5 30.2595 17.5Z" fill="#3C3C3C"/>
</svg>
