<svg width="45" height="45" viewBox="0 0 45 45" fill="none" xmlns="http://www.w3.org/2000/svg">
<path d="M8.625 37V35H14.624L14.625 16H12.625C11.65 16 11.27 14.765 12.015 14.206L12.111 14.143L22.111 8.143C22.246 8.06201 22.399 8.01401 22.556 8.00301C22.714 7.992 22.872 8.018 23.017 8.08001L23.139 8.143L33.139 14.143C33.976 14.644 33.666 15.898 32.739 15.994L32.625 16H30.625L30.624 35H36.625V37H8.625ZM28.624 35L28.625 16H16.625L16.624 35H18.625V33C18.625 31.956 19.033 30.954 19.761 30.207C20.49 29.46 21.482 29.027 22.525 29.001C23.568 28.975 24.58 29.358 25.345 30.067C26.11 30.777 26.568 31.758 26.62 32.8L26.625 33V35H28.624ZM22.625 31C22.12 31 21.634 31.19 21.264 31.533C20.895 31.877 20.668 32.347 20.63 32.85L20.625 33V35H24.625V33C24.625 32.47 24.414 31.961 24.039 31.586C23.664 31.211 23.155 31 22.625 31ZM22.625 20C22.89 20 23.145 20.105 23.332 20.293C23.52 20.48 23.625 20.735 23.625 21C23.625 21.265 23.52 21.52 23.332 21.707C23.145 21.895 22.89 22 22.625 22C22.36 22 22.105 21.895 21.918 21.707C21.73 21.52 21.625 21.265 21.625 21C21.625 20.735 21.73 20.48 21.918 20.293C22.105 20.105 22.36 20 22.625 20ZM22.625 10.166L16.234 14H29.015L22.625 10.166Z" fill="#3C3C3C"/>
</svg>
