<svg width="45" height="45" viewBox="0 0 45 45" fill="none" xmlns="http://www.w3.org/2000/svg">
<path d="M23.361 8.067L23.474 8.12L36.474 15.12L35.526 16.88L33 15.52V24.999L37 25V27L32.37 26.999L26 32.459V37H24V35L22 34.999V37H20V32.46L13.629 26.999L9 27V25L13 24.999V15.519L10.474 16.88L9.526 15.12L22.526 8.12C22.785 7.98 23.09 7.963 23.361 8.067ZM22 30.999V32.999L24 33V31L22 30.999ZM20 26.999H16.702L20 29.826V26.999ZM29.297 26.999H26V29.825L29.297 26.999ZM24 26.999H22V28.999L24 29V26.999ZM24 20H22V25H24V20ZM23 10.135L15 14.442V24.999H20V19C20 18.487 20.386 18.064 20.883 18.007L21 18H25C25.513 18 25.936 18.386 25.993 18.883L26 19V24.999H31V14.443L23 10.135ZM23 13C23.552 13 24 13.448 24 14C24 14.552 23.552 15 23 15C22.448 15 22 14.552 22 14C22 13.448 22.448 13 23 13Z" fill="#3C3C3C"/>
</svg>
