<svg width="45" height="45" viewBox="0 0 45 45" fill="none" xmlns="http://www.w3.org/2000/svg">
<path d="M13.7836 36.501C13.2786 36.501 12.7926 36.31 12.4226 35.966C12.0526 35.623 11.8266 35.153 11.7886 34.65L11.7836 34.501V25.501H9.99964C9.63064 25.501 9.26764 25.399 8.95364 25.205C8.63864 25.012 8.38364 24.735 8.21664 24.406C8.04864 24.076 7.97664 23.707 8.00664 23.339C8.03664 22.971 8.16764 22.618 8.38564 22.32L8.49964 22.177L16.1296 13.527L16.1126 13.509L16.2546 13.387L19.0346 10.238C19.4926 9.72003 20.0526 9.30103 20.6796 9.01003C21.3076 8.71903 21.9886 8.56203 22.6796 8.54803C23.3716 8.53403 24.0576 8.66303 24.6966 8.92803C25.3356 9.19203 25.9126 9.58603 26.3916 10.085L26.5326 10.238L29.3106 13.387L29.4546 13.509L29.4366 13.529L37.0666 22.177C37.3976 22.552 37.5766 23.038 37.5666 23.538C37.5576 24.039 37.3606 24.517 37.0156 24.88L36.8906 25.001C36.5716 25.282 36.1726 25.453 35.7496 25.492L35.5676 25.501H33.7836V34.501C33.7836 35.006 33.5936 35.492 33.2506 35.861C32.9066 36.231 32.4366 36.458 31.9336 36.496L31.7836 36.501H13.7836ZM31.7836 25.501H13.7836V34.501H18.7836V31.501C18.7836 30.475 19.1776 29.488 19.8856 28.744C20.5926 28.001 21.5586 27.556 22.5836 27.505L22.7836 27.501C23.8096 27.501 24.7966 27.894 25.5406 28.602C26.2836 29.309 26.7276 30.276 26.7786 31.301L26.7836 31.501V34.501H31.7836V25.501ZM22.7836 29.501C22.2786 29.501 21.7926 29.69 21.4226 30.033C21.0526 30.377 20.8266 30.847 20.7886 31.35L20.7836 31.501V34.501H24.7836V31.501C24.7836 31.023 24.6126 30.56 24.3016 30.197C23.9896 29.835 23.5586 29.596 23.0866 29.524L22.9326 29.505L22.7836 29.501ZM26.7836 19.501C26.2816 19.501 25.8036 19.676 25.4546 19.992C24.7206 20.647 23.7686 21.007 22.7846 21.001C21.7996 21.007 20.8476 20.648 20.1126 19.992C19.7446 19.67 19.2716 19.495 18.7826 19.501C18.2946 19.495 17.8216 19.671 17.4546 19.992C16.7206 20.648 15.7686 21.009 14.7836 21.003C14.0516 21.005 13.3326 20.807 12.7046 20.432L9.99964 23.501H35.5676L32.8606 20.432C32.2406 20.805 31.5206 21.001 30.7836 21.001C29.7996 21.007 28.8476 20.647 28.1136 19.992C27.7466 19.669 27.2726 19.495 26.7836 19.501ZM26.7836 14.501C26.2946 14.495 25.8206 14.669 25.4536 14.992C24.7186 15.647 23.7676 16.007 22.7836 16.001C21.7996 16.007 20.8476 15.647 20.1126 14.992C19.7456 14.669 19.2716 14.495 18.7826 14.501C18.3576 14.501 17.9506 14.626 17.6236 14.857L14.0776 18.88C14.2986 18.96 14.5376 19.001 14.7836 19.001C15.2866 19.001 15.7636 18.825 16.1126 18.509C16.8476 17.854 17.7986 17.495 18.7826 17.501C19.7726 17.501 20.7286 17.852 21.4546 18.509C21.8046 18.825 22.2816 19.001 22.7846 19.001C23.2866 19.001 23.7636 18.825 24.1126 18.509C24.8476 17.854 25.7986 17.495 26.7836 17.501C27.7736 17.501 28.7296 17.852 29.4556 18.509C29.8056 18.825 30.2816 19.001 30.7846 19.001C31.0306 19.001 31.2696 18.959 31.4906 18.88L27.9436 14.856C27.6026 14.621 27.1976 14.498 26.7836 14.501ZM20.6636 11.423L20.5336 11.561L19.6276 12.587C20.2206 12.709 20.7786 12.967 21.2556 13.341L21.4546 13.509C21.8046 13.825 22.2806 14.001 22.7846 14.001C23.2236 14.001 23.6446 13.867 23.9756 13.621L24.1126 13.509C24.6286 13.045 25.2596 12.727 25.9396 12.587L25.0336 11.561L24.9046 11.425L24.7686 11.296L24.6226 11.177C24.0726 10.75 23.3906 10.528 22.6946 10.548C21.9976 10.569 21.3306 10.831 20.8066 11.29L20.6636 11.423Z" fill="#3C3C3C"/>
</svg>
