<svg width="45" height="45" viewBox="0 0 45 45" fill="none" xmlns="http://www.w3.org/2000/svg">
<path d="M21.737 9.27898C22.102 9.10898 22.497 9.01498 22.899 9.00098C23.301 8.98798 23.702 9.05498 24.077 9.19898L24.263 9.27898L36.843 15.119C37.165 15.269 37.441 15.502 37.643 15.794C37.846 16.086 37.967 16.425 37.994 16.779L38 16.934V19.796C38 19.958 37.961 20.118 37.885 20.262C37.809 20.406 37.7 20.529 37.566 20.621C37.854 21.336 38 22.063 38 22.796C38 23.726 37.765 24.643 37.306 25.544L37.164 25.809L37.256 25.992C37.715 26.959 37.958 28.107 37.995 29.43L38 29.796C38 31.59 37.642 33.381 36.929 35.165C36.863 35.332 36.753 35.478 36.61 35.587C36.468 35.697 36.299 35.766 36.121 35.788L36 35.796H10C9.814 35.796 9.632 35.743 9.474 35.645C9.317 35.548 9.189 35.408 9.106 35.242C8.364 33.758 8 31.941 8 29.796C8 28.115 8.22 26.814 8.71 25.889L8.797 25.736L8.694 25.544C8.281 24.733 8.049 23.908 8.007 23.074L8 22.796C8 22.063 8.146 21.335 8.433 20.619C8.317 20.539 8.219 20.436 8.146 20.315C8.073 20.195 8.026 20.061 8.008 19.921L8 19.796V16.934C8 16.579 8.095 16.23 8.274 15.923C8.453 15.617 8.711 15.364 9.02 15.19L9.158 15.121L21.737 9.27898ZM35.826 31.796H10.136C10.228 32.432 10.368 33.013 10.554 33.542L10.65 33.796H35.304L35.38 33.579C35.575 32.983 35.724 32.389 35.827 31.796H35.826ZM26 20.796H20V29.796H26V20.796ZM35.44 20.796H28V29.796H36C36 28.566 35.803 27.569 35.423 26.796H30V24.796H35.44C35.817 24.112 36 23.448 36 22.796C36 22.144 35.817 21.48 35.44 20.796ZM18 20.796H10.56C10.184 21.481 10 22.146 10 22.796C10 23.446 10.183 24.112 10.56 24.796H16V26.796H10.493C10.187 27.346 10 28.35 10 29.796H18V20.796ZM23 22.796C23.265 22.796 23.52 22.901 23.707 23.089C23.895 23.276 24 23.531 24 23.796C24 24.061 23.895 24.316 23.707 24.503C23.52 24.691 23.265 24.796 23 24.796C22.735 24.796 22.48 24.691 22.293 24.503C22.105 24.316 22 24.061 22 23.796C22 23.531 22.105 23.276 22.293 23.089C22.48 22.901 22.735 22.796 23 22.796ZM23.421 11.093C23.194 10.987 22.935 10.972 22.696 11.048L22.579 11.093L10 16.934V18.796H36V16.934L23.421 11.093Z" fill="#3C3C3C"/>
</svg>
